:SAMPLES-PER-SECOND 30
:FULLY-SPECIFIED
:DEGREES
310
root  -3.44275 40.8823 0.985692 -176.678 -87.1269 174.901
RightUpLeg  6.29883 -2.18047 -2.39915
RightLeg  -0.615824 -15.9909 -0.0626691
RightFoot  -2.08575 -0.344378 4.12641
RightToes  -3.13006e-008 1.75238e-005 3.56266e-009
Spine  -10.8003 -0.47411 -0.90938
Spine1  18.1554 -0.929262 1.42338
HEad  -16.101 8.20644 -3.16266
LeftShoulder1  2.72819 -4.85918 -26.5052
LeftArm  -38.9543 12.5706 -49.5649
LeftForeArm  142.012 -62.8719 -157.981
LeftHand  0.813612 -7.283 -7.07245
RightShoulder  2.98971 5.78478 26.1611
RightArm  -29.9462 -13.1497 28.7656
RightForeArm  101.916 62.4405 155.138
RightHand  -0.293347 5.99127 -3.30578
LeftUpLeg  6.60356 1.34402 1.4117
LeftLeg  -1.68293 15.0315 -0.876389
LeftFoot  -2.20362 0.216417 -2.52992
LeftToes  4.76866e-008 1.46233e-008 1.30548e-009
311
root  -3.4477 40.8801 0.995709 -175.331 -87.3596 173.405
RightUpLeg  6.45556 -2.23794 -2.46382
RightLeg  -0.519485 -16.1529 -0.108954
RightFoot  -2.16198 -0.348062 4.18798
RightToes  -3.13006e-008 1.75238e-005 3.56266e-009
Spine  -10.9243 -0.575059 -0.406269
Spine1  18.4403 -1.10626 1.40329
HEad  -17.9584 4.469 -9.7431
LeftShoulder1  2.57859 -4.58981 -25.7205
LeftArm  -38.7992 11.9241 -49.5756
LeftForeArm  141.651 -63.566 -157.316
LeftHand  0.776401 -7.54673 -6.57827
RightShoulder  2.95283 5.65721 26.2101
RightArm  -29.457 -12.331 29.0916
RightForeArm  102.633 62.7462 154.862
RightHand  -0.384498 6.49004 -4.09633
LeftUpLeg  6.74582 1.35987 1.38018
LeftLeg  -1.68945 14.7467 -0.902922
LeftFoot  -2.19273 0.212657 -2.46672
LeftToes  4.76866e-008 1.46233e-008 1.30548e-009
312
root  -3.43238 40.881 1.01186 -173.347 -87.5291 171.372
RightUpLeg  6.4507 -2.35883 -2.59921
RightLeg  -0.400325 -16.1787 -0.0994641
RightFoot  -2.22103 -0.355865 4.31082
RightToes  -3.13006e-008 1.75238e-005 3.56266e-009
Spine  -11.153 -0.650732 0.272559
Spine1  18.7314 -1.30752 1.46727
HEad  -18.722 -1.09671 -18.0065
LeftShoulder1  2.62087 -4.76696 -25.5385
LeftArm  -39.2326 11.1121 -48.8729
LeftForeArm  140.556 -63.9857 -156.811
LeftHand  0.72942 -6.99447 -6.46297
RightShoulder  3.01899 5.83921 26.2903
RightArm  -29.6099 -10.374 29.4645
RightForeArm  102.63 63.4908 154.076
RightHand  -0.359491 5.95526 -4.00127
LeftUpLeg  6.74641 1.30867 1.29887
LeftLeg  -1.68088 14.5922 -0.906066
LeftFoot  -2.14787 0.21495 -2.48661
LeftToes  4.76866e-008 1.46233e-008 1.30548e-009
313
root  -3.40864 40.8828 1.01837 -170.799 -87.7499 168.875
RightUpLeg  6.36688 -2.42993 -2.68527
RightLeg  -0.360661 -16.3345 -0.082895
RightFoot  -2.21735 -0.355271 4.30104
RightToes  -3.13006e-008 1.75238e-005 3.56266e-009
Spine  -10.6612 -0.819381 1.40661
Spine1  17.7946 -1.3393 0.637179
HEad  -16.1753 -6.66289 -25.3795
LeftShoulder1  2.67709 -4.88513 -25.774
LeftArm  -39.4888 10.3127 -47.6159
LeftForeArm  140.085 -63.9749 -156.771
LeftHand  0.705716 -6.50806 -6.52314
RightShoulder  3.1961 6.26409 26.7131
RightArm  -29.0979 -10.4189 29.3867
RightForeArm  102.997 63.6717 153.898
RightHand  -0.38156 6.22897 -4.14041
LeftUpLeg  6.61951 1.27023 1.24418
LeftLeg  -1.66415 14.3574 -0.930261
LeftFoot  -2.09741 0.210096 -2.39163
LeftToes  4.76866e-008 1.46233e-008 1.30548e-009
314
root  -3.39233 40.8867 1.01499 -167.951 -87.8637 166.145
RightUpLeg  6.25928 -2.45526 -2.74866
RightLeg  -0.424403 -16.4439 -0.0699667
RightFoot  -2.1832 -0.352425 4.2545
RightToes  -3.13006e-008 1.75238e-005 3.56266e-009
Spine  -10.0518 -0.621371 2.57687
Spine1  16.2476 -0.871895 -0.514077
HEad  -12.5574 -10.9128 -30.6418
LeftShoulder1  2.75694 -5.1068 -25.8808
LeftArm  -39.2848 8.84108 -47.0492
LeftForeArm  140.052 -64.5334 -156.219
LeftHand  0.779827 -6.8208 -7.04294
RightShoulder  3.32129 6.50439 27.1965
RightArm  -28.9985 -10.7987 29.4809
RightForeArm  102.891 63.9902 153.535
RightHand  -0.399699 6.51545 -4.23263
LeftUpLeg  6.53254 1.19644 1.16425
LeftLeg  -1.85883 14.3209 -0.990596
LeftFoot  -1.96565 0.212034 -2.39945
LeftToes  4.76866e-008 1.46233e-008 1.30548e-009
315
root  -3.37709 40.8907 0.997348 -166.058 -87.9579 164.395
RightUpLeg  6.17182 -2.40303 -2.7177
RightLeg  -0.590555 -16.6503 -0.0527183
RightFoot  -2.11717 -0.350122 4.21503
RightToes  -3.13006e-008 1.75238e-005 3.56266e-009
Spine  -10.2406 -0.370634 4.10988
Spine1  15.9705 -0.144507 -2.52741
HEad  -11.165 -13.4788 -32.8064
LeftShoulder1  2.87158 -5.33783 -26.3679
LeftArm  -38.8779 6.74476 -46.2167
LeftForeArm  139.437 -64.8301 -155.854
LeftHand  0.755571 -6.60597 -6.94569
RightShoulder  3.37698 6.55288 27.6024
RightArm  -28.7368 -11.8699 29.6387
RightForeArm  103.234 64.1242 153.406
RightHand  -0.373717 6.57459 -3.96304
LeftUpLeg  6.37606 1.17115 1.16291
LeftLeg  -1.93327 14.2316 -1.03072
LeftFoot  -1.88585 0.214163 -2.40832
LeftToes  4.76866e-008 1.46233e-008 1.30548e-009
316
root  -3.35658 40.8925 0.968455 -163.724 -88.192 162.096
RightUpLeg  6.22351 -2.38874 -2.66052
RightLeg  -0.765744 -16.9088 0.0204389
RightFoot  -2.07316 -0.343685 4.11047
RightToes  -3.13006e-008 1.75238e-005 3.56266e-009
Spine  -10.551 -0.244015 4.67144
Spine1  16.3422 0.282018 -3.63182
HEad  -11.2365 -14.7598 -33.2304
LeftShoulder1  2.8592 -5.16538 -26.8769
LeftArm  -38.042 4.67133 -46.4014
LeftForeArm  139.767 -64.9468 -155.768
LeftHand  0.767279 -7.14005 -6.73778
RightShoulder  3.41603 6.65992 27.6324
RightArm  -28.7499 -11.9147 29.6906
RightForeArm  102.075 64.1682 153.274
RightHand  -0.385537 6.49218 -4.09695
LeftUpLeg  6.29185 1.16654 1.21206
LeftLeg  -1.96301 13.985 -1.01772
LeftFoot  -1.81862 0.216775 -2.42366
LeftToes  4.76866e-008 1.46233e-008 1.30548e-009
317
root  -3.31481 40.8933 0.918234 -158.288 -88.5581 156.51
RightUpLeg  6.35815 -2.47543 -2.65282
RightLeg  -0.706233 -17.197 0.0972677
RightFoot  -2.13256 -0.34845 4.1793
RightToes  -3.13006e-008 1.75238e-005 3.56266e-009
Spine  -10.5137 -0.209922 4.24838
Spine1  16.6425 0.423178 -3.71692
HEad  -11.1198 -14.1472 -32.0186
LeftShoulder1  3.09184 -5.63927 -27.7493
LeftArm  -37.353 3.3794 -46.4564
LeftForeArm  140.111 -65.0117 -155.735
LeftHand  0.75213 -7.71613 -6.27025
RightShoulder  3.33503 6.50009 27.3527
RightArm  -28.7894 -11.1902 29.9108
RightForeArm  101.681 64.7466 152.57
RightHand  -0.312503 5.87685 -3.54546
LeftUpLeg  6.30148 1.18122 1.27658
LeftLeg  -1.87964 13.5977 -0.957482
LeftFoot  -1.77123 0.224435 -2.5174
LeftToes  4.76866e-008 1.46233e-008 1.30548e-009
318
root  -3.26111 40.8936 0.868094 -155.791 -88.7891 153.803
RightUpLeg  6.44092 -2.52865 -2.57981
RightLeg  -0.504915 -17.3722 0.134968
RightFoot  -2.21166 -0.342868 4.08749
RightToes  -3.13006e-008 1.75238e-005 3.56266e-009
Spine  -9.92226 -0.287459 3.62319
Spine1  16.1827 0.382772 -3.57123
HEad  -10.9768 -11.7546 -29.1908
LeftShoulder1  3.20697 -5.8883 -28.0896
LeftArm  -36.8618 3.08335 -46.9447
LeftForeArm  139.867 -64.994 -155.729
LeftHand  0.842151 -7.65067 -7.10439
RightShoulder  3.41195 6.66827 27.5628
RightArm  -27.834 -11.3692 29.267
RightForeArm  101.731 64.6018 152.746
RightHand  -0.335694 5.96848 -3.7481
LeftUpLeg  6.2945 1.26084 1.41523
LeftLeg  -1.62916 13.3096 -0.867881
LeftFoot  -1.78931 0.232451 -2.61745
LeftToes  4.76866e-008 1.46233e-008 1.30548e-009
319
root  -3.21843 40.8936 0.807342 -157.105 -88.9566 155.047
RightUpLeg  6.48759 -2.48373 -2.3979
RightLeg  -0.547997 -17.5754 0.231792
RightFoot  -2.16806 -0.333954 3.94436
RightToes  -3.13006e-008 1.75238e-005 3.56266e-009
Spine  -9.85404 -0.315765 2.87273
Spine1  16.3829 0.372087 -3.32243
HEad  -11.1924 -9.2006 -24.8261
LeftShoulder1  3.22388 -5.94343 -28.0652
LeftArm  -36.2025 2.59946 -47.6686
LeftForeArm  139.671 -65.2645 -155.424
LeftHand  0.844925 -7.2819 -7.35499
RightShoulder  3.4768 6.77149 27.8672
RightArm  -27.3655 -11.1774 28.7528
RightForeArm  101.302 64.501 152.836
RightHand  -0.409917 6.34773 -4.38718
LeftUpLeg  6.2194 1.35939 1.62908
LeftLeg  -1.49009 13.0581 -0.798591
LeftFoot  -1.76032 0.244179 -2.77692
LeftToes  4.76866e-008 1.46233e-008 1.30548e-009
320
root  -3.18134 40.8935 0.749552 -159.985 -89.0116 158.04
RightUpLeg  6.3241 -2.39828 -2.22312
RightLeg  -0.585422 -17.7389 0.294578
RightFoot  -2.12582 -0.326428 3.82362
RightToes  -3.13006e-008 1.75238e-005 3.56266e-009
Spine  -10.0053 -0.309021 1.4556
Spine1  16.5863 0.135789 -2.04247
HEad  -10.861 -6.13074 -20.0794
LeftShoulder1  3.31104 -6.04531 -28.6314
LeftArm  -35.7199 2.45544 -47.724
LeftForeArm  140.171 -65.5592 -155.161
LeftHand  0.837651 -7.11454 -7.3945
RightShoulder  3.43809 6.6794 27.791
RightArm  -26.9786 -10.7896 28.6996
RightForeArm  101.956 64.8024 152.52
RightHand  -0.368741 6.3382 -3.98249
LeftUpLeg  6.00729 1.40515 1.78965
LeftLeg  -1.44588 12.9581 -0.75742
LeftFoot  -1.67448 0.247111 -2.79996
LeftToes  4.76866e-008 1.46233e-008 1.30548e-009
